REM DIRINDEX 1\2,1\3,1\4,1\5
REM DIRNAME cjc046,folder01,folder02,folder03,folder04
TITLE ""
FILE "126.mp3" MP3
  TRACK 01 AUDIO
    TITLE "0:"
    INDEX 01 00:00:00
  TRACK 02 AUDIO
    TITLE "2:cjc046_3147"
    INDEX 01 00:00:13
  TRACK 03 AUDIO
    TITLE "0:"
    INDEX 01 00:01:17
  TRACK 04 AUDIO
    TITLE "3:cjc046_3148"
    INDEX 01 00:01:36
  TRACK 05 AUDIO
    TITLE "0:"
    INDEX 01 00:02:55
  TRACK 06 AUDIO
    TITLE "4:cjc046_3149"
    INDEX 01 00:03:04
  TRACK 07 AUDIO
    TITLE "0:"
    INDEX 01 00:04:05
  TRACK 08 AUDIO
    TITLE "2:cjc046_3150"
    INDEX 01 00:05:16
  TRACK 09 AUDIO
    TITLE "0:"
    INDEX 01 00:06:16
  TRACK 10 AUDIO
    TITLE "3:cjc046_3151"
    INDEX 01 00:06:33
  TRACK 11 AUDIO
    TITLE "0:"
    INDEX 01 00:07:43
  TRACK 12 AUDIO
    TITLE "4:cjc046_3152"
    INDEX 01 00:07:60
  TRACK 13 AUDIO
    TITLE "0:"
    INDEX 01 00:08:62
  TRACK 14 AUDIO
    TITLE "2:cjc046_3153"
    INDEX 01 00:09:73
  TRACK 15 AUDIO
    TITLE "0:"
    INDEX 01 00:11:05
  TRACK 16 AUDIO
    TITLE "3:cjc046_3154"
    INDEX 01 00:11:23
  TRACK 17 AUDIO
    TITLE "0:"
    INDEX 01 00:12:61
  TRACK 18 AUDIO
    TITLE "4:cjc046_3155"
    INDEX 01 00:13:02
  TRACK 19 AUDIO
    TITLE "0:"
    INDEX 01 00:14:09
  TRACK 20 AUDIO
    TITLE "2:cjc046_3156"
    INDEX 01 00:15:19
  TRACK 21 AUDIO
    TITLE "0:"
    INDEX 01 00:16:32
  TRACK 22 AUDIO
    TITLE "3:cjc046_3157"
    INDEX 01 00:16:53
  TRACK 23 AUDIO
    TITLE "0:"
    INDEX 01 00:17:59
  TRACK 24 AUDIO
    TITLE "4:cjc046_3158"
    INDEX 01 00:17:69
  TRACK 25 AUDIO
    TITLE "0:"
    INDEX 01 00:19:05
  TRACK 26 AUDIO
    TITLE "2:cjc046_3159"
    INDEX 01 00:20:18
  TRACK 27 AUDIO
    TITLE "0:"
    INDEX 01 00:21:23
  TRACK 28 AUDIO
    TITLE "3:cjc046_3160"
    INDEX 01 00:21:45
  TRACK 29 AUDIO
    TITLE "0:"
    INDEX 01 00:22:74
  TRACK 30 AUDIO
    TITLE "4:cjc046_3161"
    INDEX 01 00:23:16
  TRACK 31 AUDIO
    TITLE "0:"
    INDEX 01 00:24:20
  TRACK 32 AUDIO
    TITLE "2:cjc046_3162"
    INDEX 01 00:25:25
  TRACK 33 AUDIO
    TITLE "0:"
    INDEX 01 00:26:38
  TRACK 34 AUDIO
    TITLE "3:cjc046_3163"
    INDEX 01 00:26:56
  TRACK 35 AUDIO
    TITLE "0:"
    INDEX 01 00:27:73
  TRACK 36 AUDIO
    TITLE "4:cjc046_3164"
    INDEX 01 00:28:13
  TRACK 37 AUDIO
    TITLE "0:"
    INDEX 01 00:29:25
  TRACK 38 AUDIO
    TITLE "2:cjc046_3165"
    INDEX 01 00:30:34
  TRACK 39 AUDIO
    TITLE "0:"
    INDEX 01 00:31:59
  TRACK 40 AUDIO
    TITLE "3:cjc046_3166"
    INDEX 01 00:32:00
  TRACK 41 AUDIO
    TITLE "0:"
    INDEX 01 00:34:04
  TRACK 42 AUDIO
    TITLE "4:cjc046_3167"
    INDEX 01 00:34:20
  TRACK 43 AUDIO
    TITLE "0:"
    INDEX 01 00:35:47
  TRACK 44 AUDIO
    TITLE "2:cjc046_3168"
    INDEX 01 00:36:52
  TRACK 45 AUDIO
    TITLE "0:"
    INDEX 01 00:37:50
  TRACK 46 AUDIO
    TITLE "3:cjc046_3169"
    INDEX 01 00:37:69
  TRACK 47 AUDIO
    TITLE "0:"
    INDEX 01 00:39:41
  TRACK 48 AUDIO
    TITLE "4:cjc046_3170"
    INDEX 01 00:39:60
  TRACK 49 AUDIO
    TITLE "0:"
    INDEX 01 00:40:56
  TRACK 50 AUDIO
    TITLE "2:cjc046_3171"
    INDEX 01 00:41:65
  TRACK 51 AUDIO
    TITLE "0:"
    INDEX 01 00:42:74
  TRACK 52 AUDIO
    TITLE "3:cjc046_3172"
    INDEX 01 00:43:11
  TRACK 53 AUDIO
    TITLE "0:"
    INDEX 01 00:44:14
  TRACK 54 AUDIO
    TITLE "4:cjc046_3173"
    INDEX 01 00:44:34
  TRACK 55 AUDIO
    TITLE "0:"
    INDEX 01 00:45:43
  TRACK 56 AUDIO
    TITLE "2:cjc046_3174"
    INDEX 01 00:46:49
  TRACK 57 AUDIO
    TITLE "0:"
    INDEX 01 00:47:50
  TRACK 58 AUDIO
    TITLE "3:cjc046_3175"
    INDEX 01 00:48:04
  TRACK 59 AUDIO
    TITLE "0:"
    INDEX 01 00:49:14
  TRACK 60 AUDIO
    TITLE "4:cjc046_3176"
    INDEX 01 00:49:29
  TRACK 61 AUDIO
    TITLE "0:"
    INDEX 01 00:50:31
  TRACK 62 AUDIO
    TITLE "2:cjc046_3177"
    INDEX 01 00:51:44
  TRACK 63 AUDIO
    TITLE "0:"
    INDEX 01 00:52:47
  TRACK 64 AUDIO
    TITLE "3:cjc046_3178"
    INDEX 01 00:52:71
  TRACK 65 AUDIO
    TITLE "0:"
    INDEX 01 00:53:64
  TRACK 66 AUDIO
    TITLE "4:cjc046_3179"
    INDEX 01 00:54:03
  TRACK 67 AUDIO
    TITLE "0:"
    INDEX 01 00:55:06
  TRACK 68 AUDIO
    TITLE "2:cjc046_3180"
    INDEX 01 00:56:14
  TRACK 69 AUDIO
    TITLE "0:"
    INDEX 01 00:57:13
  TRACK 70 AUDIO
    TITLE "3:cjc046_3181"
    INDEX 01 00:57:31
  TRACK 71 AUDIO
    TITLE "0:"
    INDEX 01 00:58:58
  TRACK 72 AUDIO
    TITLE "4:cjc046_3182"
    INDEX 01 00:59:02
  TRACK 73 AUDIO
    TITLE "0:"
    INDEX 01 01:00:02
  TRACK 74 AUDIO
    TITLE "2:cjc046_3183"
    INDEX 01 01:01:13
  TRACK 75 AUDIO
    TITLE "0:"
    INDEX 01 01:02:14
  TRACK 76 AUDIO
    TITLE "3:cjc046_3184"
    INDEX 01 01:02:30
  TRACK 77 AUDIO
    TITLE "0:"
    INDEX 01 01:03:20
  TRACK 78 AUDIO
    TITLE "4:cjc046_3185"
    INDEX 01 01:03:33
  TRACK 79 AUDIO
    TITLE "0:"
    INDEX 01 01:04:35
  TRACK 80 AUDIO
    TITLE "2:cjc046_3186"
    INDEX 01 01:05:42
  TRACK 81 AUDIO
    TITLE "0:"
    INDEX 01 01:06:47
  TRACK 82 AUDIO
    TITLE "3:cjc046_3187"
    INDEX 01 01:06:67
  TRACK 83 AUDIO
    TITLE "0:"
    INDEX 01 01:07:68
  TRACK 84 AUDIO
    TITLE "4:cjc046_3188"
    INDEX 01 01:08:09
  TRACK 85 AUDIO
    TITLE "0:"
    INDEX 01 01:09:14
